<mxfile host="app.diagrams.net" modified="2024-02-26T14:36:38.326Z" agent="Mozilla/5.0 (X11; Ubuntu; Linux x86_64; rv:109.0) Gecko/20100101 Firefox/116.0" version="23.1.6" etag="S9Bb6hhlViU-xpCaQux1" type="github">
  <diagram name="Page-1" id="2rnLcx_xgWCIBUnER_U7">
    <mxGraphModel>
      <root>
        <mxCell id="0" />
        <mxCell id="1" parent="0" />
      </root>
    </mxGraphModel>
  </diagram>
</mxfile>
